<?xml version="1.0" standalone="no"?>
<svg xmlns:xlink="http://www.w3.org/1999/xlink" id="wave" style="transform:rotate(0deg); transition: 0.3s" viewBox="0 0 1440 100" version="1.1" xmlns="http://www.w3.org/2000/svg"><defs><linearGradient id="sw-gradient-0" x1="0" x2="0" y1="1" y2="0"><stop stop-color="rgba(223.417, 215.896, 243.474, 1)" offset="0%"/><stop stop-color="rgba(229.813, 206.378, 227.683, 1)" offset="100%"/></linearGradient></defs><path style="transform:translate(0, 0px); opacity:1" fill="url(#sw-gradient-0)" d="M0,50L10,50C20,50,40,50,60,46.7C80,43,100,37,120,28.3C140,20,160,10,180,8.3C200,7,220,13,240,15C260,17,280,13,300,16.7C320,20,340,30,360,43.3C380,57,400,73,420,66.7C440,60,460,30,480,16.7C500,3,520,7,540,20C560,33,580,57,600,68.3C620,80,640,80,660,73.3C680,67,700,53,720,55C740,57,760,73,780,80C800,87,820,83,840,81.7C860,80,880,80,900,68.3C920,57,940,33,960,30C980,27,1000,43,1020,48.3C1040,53,1060,47,1080,46.7C1100,47,1120,53,1140,48.3C1160,43,1180,27,1200,21.7C1220,17,1240,23,1260,21.7C1280,20,1300,10,1320,13.3C1340,17,1360,33,1380,46.7C1400,60,1420,70,1430,75L1440,80L1440,100L1430,100C1420,100,1400,100,1380,100C1360,100,1340,100,1320,100C1300,100,1280,100,1260,100C1240,100,1220,100,1200,100C1180,100,1160,100,1140,100C1120,100,1100,100,1080,100C1060,100,1040,100,1020,100C1000,100,980,100,960,100C940,100,920,100,900,100C880,100,860,100,840,100C820,100,800,100,780,100C760,100,740,100,720,100C700,100,680,100,660,100C640,100,620,100,600,100C580,100,560,100,540,100C520,100,500,100,480,100C460,100,440,100,420,100C400,100,380,100,360,100C340,100,320,100,300,100C280,100,260,100,240,100C220,100,200,100,180,100C160,100,140,100,120,100C100,100,80,100,60,100C40,100,20,100,10,100L0,100Z"/></svg>